<mxfile host="app.diagrams.net" modified="2021-07-13T16:11:41.370Z" agent="5.0 (Windows NT 10.0; Win64; x64) AppleWebKit/537.36 (KHTML, like Gecko) Chrome/91.0.4472.124 Safari/537.36" etag="ypD8rdA2xvtsTTqnqSuZ" version="14.6.0" type="github">
  <diagram id="OjX7OGXNQCsDIuZp0Mso" name="Page-1">
    <mxGraphModel dx="1123" dy="1122" grid="1" gridSize="10" guides="1" tooltips="1" connect="1" arrows="1" fold="1" page="1" pageScale="1" pageWidth="850" pageHeight="1100" math="0" shadow="0">
      <root>
        <mxCell id="0" />
        <mxCell id="1" parent="0" />
        <mxCell id="6zze8KN9016CIVqn-qtB-1" value="desafio_parceria_digital" style="shape=datastore;whiteSpace=wrap;html=1;" parent="1" vertex="1">
          <mxGeometry x="424" y="80" width="60" height="60" as="geometry" />
        </mxCell>
        <mxCell id="6zze8KN9016CIVqn-qtB-2" value="Produtos" style="shape=table;startSize=30;container=1;collapsible=1;childLayout=tableLayout;fixedRows=1;rowLines=0;fontStyle=1;align=center;resizeLast=1;" parent="1" vertex="1">
          <mxGeometry x="298" y="230" width="312" height="240" as="geometry" />
        </mxCell>
        <mxCell id="6zze8KN9016CIVqn-qtB-3" value="" style="shape=partialRectangle;collapsible=0;dropTarget=0;pointerEvents=0;fillColor=none;top=0;left=0;bottom=1;right=0;points=[[0,0.5],[1,0.5]];portConstraint=eastwest;" parent="6zze8KN9016CIVqn-qtB-2" vertex="1">
          <mxGeometry y="30" width="312" height="30" as="geometry" />
        </mxCell>
        <mxCell id="6zze8KN9016CIVqn-qtB-4" value="PK" style="shape=partialRectangle;connectable=0;fillColor=none;top=0;left=0;bottom=0;right=0;fontStyle=1;overflow=hidden;" parent="6zze8KN9016CIVqn-qtB-3" vertex="1">
          <mxGeometry width="30" height="30" as="geometry" />
        </mxCell>
        <mxCell id="6zze8KN9016CIVqn-qtB-5" value="id (int - auto increment - not null - unsigned)" style="shape=partialRectangle;connectable=0;fillColor=none;top=0;left=0;bottom=0;right=0;align=left;spacingLeft=6;fontStyle=0;overflow=hidden;" parent="6zze8KN9016CIVqn-qtB-3" vertex="1">
          <mxGeometry x="30" width="282" height="30" as="geometry" />
        </mxCell>
        <mxCell id="6zze8KN9016CIVqn-qtB-6" value="" style="shape=partialRectangle;collapsible=0;dropTarget=0;pointerEvents=0;fillColor=none;top=0;left=0;bottom=0;right=0;points=[[0,0.5],[1,0.5]];portConstraint=eastwest;" parent="6zze8KN9016CIVqn-qtB-2" vertex="1">
          <mxGeometry y="60" width="312" height="30" as="geometry" />
        </mxCell>
        <mxCell id="6zze8KN9016CIVqn-qtB-7" value="" style="shape=partialRectangle;connectable=0;fillColor=none;top=0;left=0;bottom=0;right=0;editable=1;overflow=hidden;" parent="6zze8KN9016CIVqn-qtB-6" vertex="1">
          <mxGeometry width="30" height="30" as="geometry" />
        </mxCell>
        <mxCell id="6zze8KN9016CIVqn-qtB-8" value="nome (varchar(255) - not null)" style="shape=partialRectangle;connectable=0;top=0;left=0;bottom=0;right=0;align=left;spacingLeft=6;overflow=hidden;labelBorderColor=none;shadow=0;fillColor=none;" parent="6zze8KN9016CIVqn-qtB-6" vertex="1">
          <mxGeometry x="30" width="282" height="30" as="geometry" />
        </mxCell>
        <mxCell id="6zze8KN9016CIVqn-qtB-9" value="" style="shape=partialRectangle;collapsible=0;dropTarget=0;pointerEvents=0;fillColor=none;top=0;left=0;bottom=0;right=0;points=[[0,0.5],[1,0.5]];portConstraint=eastwest;" parent="6zze8KN9016CIVqn-qtB-2" vertex="1">
          <mxGeometry y="90" width="312" height="30" as="geometry" />
        </mxCell>
        <mxCell id="6zze8KN9016CIVqn-qtB-10" value="" style="shape=partialRectangle;connectable=0;fillColor=none;top=0;left=0;bottom=0;right=0;editable=1;overflow=hidden;" parent="6zze8KN9016CIVqn-qtB-9" vertex="1">
          <mxGeometry width="30" height="30" as="geometry" />
        </mxCell>
        <mxCell id="6zze8KN9016CIVqn-qtB-11" value="marca (varchar(255) - not null)" style="shape=partialRectangle;connectable=0;fillColor=none;top=0;left=0;bottom=0;right=0;align=left;spacingLeft=6;overflow=hidden;" parent="6zze8KN9016CIVqn-qtB-9" vertex="1">
          <mxGeometry x="30" width="282" height="30" as="geometry" />
        </mxCell>
        <mxCell id="6zze8KN9016CIVqn-qtB-12" value="" style="shape=partialRectangle;collapsible=0;dropTarget=0;pointerEvents=0;fillColor=none;top=0;left=0;bottom=0;right=0;points=[[0,0.5],[1,0.5]];portConstraint=eastwest;" parent="6zze8KN9016CIVqn-qtB-2" vertex="1">
          <mxGeometry y="120" width="312" height="30" as="geometry" />
        </mxCell>
        <mxCell id="6zze8KN9016CIVqn-qtB-13" value="" style="shape=partialRectangle;connectable=0;fillColor=none;top=0;left=0;bottom=0;right=0;editable=1;overflow=hidden;" parent="6zze8KN9016CIVqn-qtB-12" vertex="1">
          <mxGeometry width="30" height="30" as="geometry" />
        </mxCell>
        <mxCell id="6zze8KN9016CIVqn-qtB-14" value="preco (decimal(8, 2) - not null)" style="shape=partialRectangle;connectable=0;fillColor=none;top=0;left=0;bottom=0;right=0;align=left;spacingLeft=6;overflow=hidden;" parent="6zze8KN9016CIVqn-qtB-12" vertex="1">
          <mxGeometry x="30" width="282" height="30" as="geometry" />
        </mxCell>
        <mxCell id="6zze8KN9016CIVqn-qtB-15" value="created_at (datetime - default(currentTimestamp))" style="shape=partialRectangle;connectable=0;fillColor=none;top=0;left=0;bottom=0;right=0;align=left;spacingLeft=6;overflow=hidden;" parent="1" vertex="1">
          <mxGeometry x="328" y="410" width="282" height="30" as="geometry" />
        </mxCell>
        <mxCell id="6zze8KN9016CIVqn-qtB-38" value="" style="line;strokeWidth=1;rotatable=0;dashed=0;labelPosition=right;align=left;verticalAlign=middle;spacingTop=0;spacingLeft=6;points=[];portConstraint=eastwest;shadow=0;fillColor=#2a2a2a;" parent="1" vertex="1">
          <mxGeometry x="298" y="310" width="312" height="20" as="geometry" />
        </mxCell>
        <mxCell id="6zze8KN9016CIVqn-qtB-39" value="" style="line;strokeWidth=1;rotatable=0;dashed=0;labelPosition=right;align=left;verticalAlign=middle;spacingTop=0;spacingLeft=6;points=[];portConstraint=eastwest;shadow=0;fillColor=#2a2a2a;" parent="1" vertex="1">
          <mxGeometry x="298" y="340" width="312" height="20" as="geometry" />
        </mxCell>
        <mxCell id="6zze8KN9016CIVqn-qtB-40" value="" style="line;strokeWidth=1;rotatable=0;dashed=0;labelPosition=right;align=left;verticalAlign=middle;spacingTop=0;spacingLeft=6;points=[];portConstraint=eastwest;shadow=0;fillColor=#2a2a2a;" parent="1" vertex="1">
          <mxGeometry x="298" y="370" width="312" height="20" as="geometry" />
        </mxCell>
        <mxCell id="6zze8KN9016CIVqn-qtB-42" value="updated_at (datetime - default(null))" style="shape=partialRectangle;connectable=0;fillColor=none;top=0;left=0;bottom=0;right=0;align=left;spacingLeft=6;overflow=hidden;" parent="1" vertex="1">
          <mxGeometry x="328" y="440" width="282" height="30" as="geometry" />
        </mxCell>
        <mxCell id="6zze8KN9016CIVqn-qtB-43" value="" style="line;strokeWidth=1;rotatable=0;dashed=0;labelPosition=right;align=left;verticalAlign=middle;spacingTop=0;spacingLeft=6;points=[];portConstraint=eastwest;shadow=0;fillColor=#2a2a2a;" parent="1" vertex="1">
          <mxGeometry x="300" y="400" width="310" height="20" as="geometry" />
        </mxCell>
        <mxCell id="mgDnKdsnDCoH38jj6wMY-1" value="" style="line;strokeWidth=1;rotatable=0;dashed=0;labelPosition=right;align=left;verticalAlign=middle;spacingTop=0;spacingLeft=6;points=[];portConstraint=eastwest;shadow=0;fillColor=#2a2a2a;" parent="1" vertex="1">
          <mxGeometry x="298" y="430" width="312" height="20" as="geometry" />
        </mxCell>
        <mxCell id="mgDnKdsnDCoH38jj6wMY-3" value="quantidade_estoque (int - default(0))" style="shape=partialRectangle;connectable=0;fillColor=none;top=0;left=0;bottom=0;right=0;align=left;spacingLeft=6;overflow=hidden;" parent="1" vertex="1">
          <mxGeometry x="328" y="380" width="282" height="30" as="geometry" />
        </mxCell>
      </root>
    </mxGraphModel>
  </diagram>
</mxfile>
